<svg xmlns="http://www.w3.org/2000/svg" viewBox="0 0 64 64" fill="none">
  <rect width="64" height="64" rx="14" fill="#0B1220"/>
  <rect x="2" y="2" width="60" height="60" rx="12" stroke="#C9963A" stroke-width="2" opacity="0.9"/>
  <!-- rays -->
  <g stroke="#E8B84A" stroke-width="3" stroke-linecap="round">
    <path d="M32 7v6"/>
    <path d="M47 14.5 42.8 18.7"/>
    <path d="M53 30h-6"/>
    <path d="M17 14.5 21.2 18.7"/>
    <path d="M11 30h6"/>
  </g>
  <!-- sun -->
  <circle cx="32" cy="28" r="9" fill="#E8B84A"/>
  <circle cx="29.2" cy="25.4" r="2.6" fill="#FFF3C9" opacity="0.65"/>
  <!-- panels -->
  <path d="M12 41.5 32 35.5l20 6v5.2L32 40.7 12 46.7V41.5Z" fill="#F0D9A0"/>
  <path d="M12 48.2 32 42.2l20 6v5L32 47.2 12 53.2v-5Z" fill="#C9963A"/>
  <path d="M12 54.5 32 48.5l20 6V58L32 52.5 12 58.5v-4Z" fill="#B8862A"/>
</svg>
